# xmcd
#
# Track frame offsets:
# 150
# 15965
# 38195
# 51417
# 63525
# 76125
# 94395
# 108147
# 121922
# 138890
# 155734
# 169465
# 184240
# 202477
# 222662
# 238897
# 252822
# 269577
#
# Disc length: 3810 seconds
#
#
# Revision: 0
# Processed by: cddbd v1.5.2PL0 Copyright (c) Steve Scherf et al.
# Submitted via: FreeRIP 2.93 
#
DISCID=120ee012
DTITLE=Planalto FM - Diversos - Planalto FM
DYEAR=1900
DGENRE=Gauchesca
TTITLE0=Menina Morena - Terra Pampeana
TTITLE1=Perdido num baile de fronteira - Os Mateadores
TTITLE2=E Loucura do Chico - Joao Kadela e Grupo Kanil
TTITLE3=Rimas de Saudade - Grupo Renascenca
TTITLE4=Pra nos dois dancar - Grupo Rodeio
TTITLE5=Pe no estribo - Elton Saudanha
TTITLE6=Mexe que remexe - Grupo Bailanta
TTITLE7=Flor de Chamame - Os Mirins
TTITLE8=Santo Chao - Os Nativos
TTITLE9=Quando este gaiteiro toca - Odilon Ramos e Grupo Pampa e Guitarra
TTITLE10=Que Pena - Grupo Soledade
TTITLE11=Um Pito - Osvaldir e Carlos Magrão
TTITLE12=Onde anda o meu amor - Tche Guri
TTITLE13=Na hora do mate - Grupo Fole Solto
TTITLE14=Tormento - Wilson Paim
TTITLE15=Passo Fundo Tche - Leonardo
TTITLE16=Partindo - Tche Barbaridade
TTITLE17=Alambrador - Grupo Candeeiro
EXTD=
EXTT0=
EXTT1=
EXTT2=
EXTT3=
EXTT4=
EXTT5=
EXTT6=
EXTT7=
EXTT8=
EXTT9=
EXTT10=
EXTT11=
EXTT12=
EXTT13=
EXTT14=
EXTT15=
EXTT16=
EXTT17=
PLAYORDER=
